# xmcd
#
# Track frame offsets: 
#        150
#        9882
#        22590
#        36065
#        47902
#        61292
#        74275
#        83660
#        93707
#        105370
#        118942
#        134060
#        143725
#        160330
#        178440
#        190957
#        203225
#        217172
#        232352
#        248255
#        267697
#
# Disc length: 3771 seconds
#
# Revision: 3
# Processed by: cddbd v1.5.1PL2 Copyright (c) Steve Scherf et al.
# Submitted via: ExactAudioCopy v0.90b4
#
DISCID=360eb915
DTITLE=Various Artist - Bound For Movin' On CD1
DYEAR=2001
DGENRE=Country
TTITLE0=Sons Of The Pioneers - Cool Water
TTITLE1=Hank Snow - I'm Movin' On
TTITLE2=Wilf Carter - There's A Love Knot In MY Lariat
TTITLE3=Myrna Lorrie and Buddy DeVal - Are You Mine
TTITLE4=Gary Buck - Happy To Be Unhappy
TTITLE5=Lucille Star - French Song
TTITLE6=Hal Willis - The Lumberjack
TTITLE7=Tommy Hunter - Travellin' Man
TTITLE8=Dick Damron - Countrified
TTITLE9=Murray McLauchlan - Farmer's Song
TTITLE10=Ray Griff - The Morning After Baby Let Me Down
TTITLE11=Hank Smith - Everybody's Going To The Country
TTITLE12=The Goods - Fox On The Run
TTITLE13=Dallas Harms - Paper Rosie
TTITLE14=The Mercey Brothers - Who Wrote The Words
TTITLE15=Ronnie Prophet - Sanctuary
TTITLE16=Gene McLellan - Put Your Hand In The Hand
TTITLE17=Family Brown - Raised On Country Music
TTITLE18=Carroll Baker - Why Me (Lord)
TTITLE19=Ian Tyson - The Gift
TTITLE20=Gary Fjellgaard - Dance With This Old Cowboy
EXTD=ID3G:   2
EXTT0=
EXTT1=
EXTT2=
EXTT3=
EXTT4=
EXTT5=
EXTT6=
EXTT7=
EXTT8=
EXTT9=
EXTT10=
EXTT11=
EXTT12=
EXTT13=
EXTT14=
EXTT15=
EXTT16=
EXTT17=
EXTT18=
EXTT19=
EXTT20=
PLAYORDER=
